<?xml version="1.0" encoding="UTF-8"?>
<svg id="Layer_1" data-name="Layer 1" xmlns="http://www.w3.org/2000/svg" width="71" height="35" viewBox="0 0 71 35">
  <defs>
    <style>
      .cls-1 {
        fill: #00ae42;
      }
    </style>
  </defs>
  <g>
    <rect class="cls-1" y="1.68" width="4.96" height="24.73"/>
    <polygon class="cls-1" points="10.73 14.04 10.73 14.04 20.03 1.68 13.91 1.68 5.21 14.04 5.21 14.04 14.13 26.41 20.67 26.41 10.73 14.04"/>
  </g>
  <polygon class="cls-1" points="37.59 1.73 42.51 .51 42.51 26.47 37.59 26.47 37.59 1.73"/>
  <polygon class="cls-1" points="45.61 1.73 50.53 .51 50.53 26.47 45.61 26.47 45.61 1.73"/>
  <polygon class="cls-1" points="71 9.98 64.09 26.47 60.69 34.49 55.87 34.49 59.46 26.28 52.61 9.98 57.62 9.98 61.81 20.7 65.99 9.98 71 9.98"/>
  <path class="cls-1" d="m35.15,17.9c0-4.96-3.05-8.29-7.59-8.29-4.77,0-7.97,3.44-7.97,8.55s3.34,8.62,8.5,8.62c2.66,0,5.14-.9,6.64-2.41l.28-.28-2.4-2.92-.35.33c-.96.9-2.44,1.42-4.05,1.42-2.23,0-3.72-1.13-4.2-3.19h11.15v-1.84Zm-11.04-1.8c.52-1.73,1.74-2.67,3.45-2.67,1.58,0,2.69.95,3.13,2.67h-6.58Z"/>
  <path class="cls-1" d="m67.66,25.18h.26l.43.69h.31l-.47-.71c.12-.01.23-.05.31-.12.08-.07.13-.18.13-.32,0-.16-.05-.28-.15-.36-.1-.07-.26-.11-.46-.11h-.64v1.62h.28v-.69Zm0-.23v-.47h.33s.08,0,.13,0c.04,0,.08.01.12.03l.09.07s.03.07.03.12c0,.06-.01.11-.03.14l-.08.08s-.08.03-.12.03c-.05,0-.1,0-.15,0h-.31Zm1.66-.52c-.08-.18-.19-.33-.32-.46-.14-.13-.29-.23-.47-.3-.18-.07-.37-.11-.57-.11s-.39.04-.57.11c-.18.07-.34.17-.48.3-.14.13-.24.28-.32.46-.08.18-.12.38-.12.6s.04.4.11.58c.07.18.18.33.31.46.13.13.29.23.47.31.18.07.38.11.6.11.2,0,.39-.04.57-.11.18-.07.34-.17.47-.3.14-.13.24-.28.32-.46.08-.18.12-.38.12-.6s-.04-.42-.12-.6m-.29,1.09c-.06.15-.14.27-.25.38-.11.11-.23.19-.37.25-.14.06-.29.09-.45.09-.18,0-.34-.03-.49-.1-.14-.06-.27-.15-.37-.26-.1-.11-.18-.24-.23-.38-.05-.15-.08-.3-.08-.47,0-.18.03-.34.09-.49.06-.15.14-.28.25-.38.11-.11.23-.19.37-.25.14-.06.3-.09.46-.09s.31.03.45.09c.14.06.26.14.37.25.11.11.19.24.25.38.06.15.09.31.09.49s-.03.34-.09.49"/>
</svg>